<?xml version="1.0" encoding="UTF-8"?>
<!DOCTYPE svg PUBLIC "-//W3C//DTD SVG 1.1//EN" "http://www.w3.org/Graphics/SVG/1.1/DTD/svg11.dtd">
<!-- Creator: CorelDRAW -->
<svg xmlns="http://www.w3.org/2000/svg" xml:space="preserve" width="239.889mm" height="329.847mm" version="1.1" style="shape-rendering:geometricPrecision; text-rendering:geometricPrecision; image-rendering:optimizeQuality; fill-rule:evenodd; clip-rule:evenodd"
viewBox="0 0 23988.88 32984.72"
 xmlns:xlink="http://www.w3.org/1999/xlink"
 xmlns:xodm="http://www.corel.com/coreldraw/odm/2003">
 <defs>
  <style type="text/css">
   <![CDATA[
    .str1 {stroke:#606062;stroke-width:700;stroke-miterlimit:22.9256}
    .str2 {stroke:#606062;stroke-width:7.62;stroke-miterlimit:22.9256}
    .str0 {stroke:#FEFEFE;stroke-width:7.62;stroke-miterlimit:22.9256}
    .fil1 {fill:#016DA1}
    .fil5 {fill:#373435}
    .fil3 {fill:#4B4B4D}
    .fil4 {fill:#606062}
    .fil0 {fill:#6A6A6A}
    .fil2 {fill:#FEFEFE}
   ]]>
  </style>
 </defs>
 <g id="Capa_x0020_1">
  <metadata id="CorelCorpID_0Corel-Layer"/>
  <path class="fil0 str0" d="M3664.84 19748.44c95.96,277.8 464.09,923.69 641.98,1188.63 62.37,92.94 202.63,282.42 238.5,373.57 -138.39,184.07 -627.76,935.65 -647.1,1078.81 -33.46,248.06 202.56,412.34 317.85,523.68l868.99 867.47c427.29,429.92 452.75,485.09 1078.14,55.9 168.7,-115.76 364.87,-242.58 549,-352.83 102.48,32.99 1063.85,708.74 1561.22,875.99 7.15,266.01 -25.42,573.69 -38.84,845.16 -34.25,694.27 93.2,599.31 946.36,829.49 254.29,68.62 463.59,-41.61 690.51,-124.7 1117.76,-409.38 2045.54,-916.04 2914.47,-1577.12 847.13,-644.45 1591.28,-1415.14 2197.93,-2267.1 132.52,-186.09 631.8,-905.41 694.8,-1133.33 -236.37,49.16 -520.63,151.48 -769.8,214.47 -3636.29,919.47 -7698.41,-112.8 -10330.89,-2539.74 -498.16,-459.25 -660.3,-610.53 -1098.22,-1109.22 -70.66,-80.46 -137.63,-168.15 -201.66,-245.15 -131.7,-158.4 -282.83,-334.23 -385.73,-510 -716.37,483.24 -1362.96,420.92 -1170.51,1097.96 686.77,2415.9 127.1,1893.24 1943,1908.06z"/>
  <path class="fil1 str0" d="M13009.23 25130.19c498.71,728.82 392.32,1360.71 1098.9,1169.14 325.2,-88.13 1728.66,-428.75 1834.49,-522.01 230.14,-202.94 63.2,-1060.85 71.63,-1420.65 232.45,-79.23 598.34,-279.26 805.17,-405.25l758.47 -464.88c256.5,135.48 868.16,620.58 1091.06,639.12 260.1,21.66 381.56,-199.56 521.72,-334.34 126.46,-121.6 308.56,-301.27 436.3,-432.09 141.9,-145.33 289.2,-286.85 421.7,-422.07 455.08,-464.44 468.7,-431.53 35.64,-1106.7 -78.6,-122.56 -295.43,-417.12 -333.96,-545.28 310.77,-488.37 626.68,-950.5 877.49,-1534.1 1578.67,-30.33 1298.2,404.61 1672.92,-911.94 71.27,-250.37 -41.37,-452.51 -126.13,-686.94 -319.9,-884.87 -727.41,-1688.69 -1202.13,-2394.68 -365.7,-543.84 -764.26,-1018.86 -1199,-1480.81 -158.63,-168.56 -292.1,-280.22 -458.4,-434.96 -394.91,-367.42 -1644.44,-1350.33 -2117.09,-1496.13l242.32 890.08c811.72,3388.05 -6.91,7014.89 -2124.22,9683.23 -510.49,643.38 -1029.67,1182.06 -1656.83,1715.91 -140.53,119.64 -492.6,415.86 -650.05,495.35z"/>
  <path class="fil0 str0" d="M8604.87 10833.09c1492.12,-414.05 2309.56,-586.48 3937.25,-554.16 1347.96,26.72 2637.43,354.3 3752.15,777.86 1852.28,703.77 3384.71,1880.32 4617.93,3321.86 144.06,168.42 383.72,454.01 496.5,646.42 94.13,-125.67 814.33,-419.08 1001.09,-543.52 195.26,-130.12 239.44,-265.31 161.74,-547.59 -93.96,-341.26 -432.15,-1741.78 -529.37,-1851.51 -204.3,-230.6 -1056.74,-64.43 -1419.25,-72.96 -90.59,-283.45 -451.34,-891.08 -630.54,-1176.23 -71.51,-113.8 -204.78,-268.01 -242.02,-388.99 846.31,-1469.08 1108.64,-780.09 -734.37,-2653.81 -304.85,-309.91 -491.98,-125.52 -796.71,70.29 -163.66,105.13 -611.47,440.36 -706.96,392.8l-711.2 -456.14c-251.52,-152.63 -529.36,-258.43 -778.75,-404.44 -24.95,-203.25 20.96,-617.94 32.92,-844.9 17.2,-326.34 33.08,-543.93 -248,-636.13 -227.14,-74.49 -470.86,-121.31 -703.23,-188.67 -246.18,-71.32 -361.74,13.74 -701.33,131.94 -1068.55,371.88 -2022.37,917.21 -2910.76,1579.4 -931.82,694.5 -1990.39,1849.75 -2563.89,2820.73 -81.18,137.48 -275.1,426.67 -323.2,577.75z"/>
  <path class="fil1 str0" d="M7022.08 19137.8c9.08,83.56 5.7,47.67 -15.51,113.68 -132.46,-81.69 -737.83,-1496.71 -803.58,-1674.68 -365.44,-989.18 -599.19,-1948.12 -702.22,-3027.33 -35.71,-373.96 -43.84,-816.36 -35.45,-1228.06 9.12,-447.71 73.34,-1286.31 168.3,-1713.42 70.34,-316.53 66.36,-221.19 103.92,-531.89l203.55 39.35 1.2 194 947.43 0.79c127.31,9.17 94.72,-19.07 95.08,127.1 109.99,-9.25 31,16.47 162.24,-85.49l45.44 -33.55c3.43,-2.52 10.49,-7.71 15.86,-11.37l133.45 97.57c3.69,1.82 11.98,4.34 17.62,7.27 -3,94.02 -17.74,72.75 2.87,150.19l20.62 48.17c174.36,-725.48 1157.43,-2219.64 1624.21,-2814.99 559.57,-713.7 1227.59,-1358.77 1927.66,-1917.7 112.37,-89.72 220.51,-153.77 327.19,-253.51l-535.22 -1038.75c-149.02,-198.19 -295,-197.98 -541.5,-127.49 -202.59,57.96 -413.6,108.88 -627.97,166.37 -219.58,58.87 -1106.25,266.05 -1208.67,354.15 -225.54,194.09 -83.82,1054.4 -72.4,1419.51 -297.72,102.17 -841.21,425.68 -1128.29,604.55 -506.98,315.89 -337.44,343.69 -699.45,99.89 -110.49,-74.43 -232.29,-149.93 -361.63,-232.47 -277.09,-176.83 -499.51,-392.24 -800.82,-92.09 -395.64,394.09 -769.38,776.95 -1165.14,1166.79 -299.11,294.68 -305.24,386.53 -43.83,785.07 158.57,241.73 306.36,492.25 469.02,715.78 -36.71,105.33 -678.69,995.83 -881.1,1563.75 -1566.73,0.03 -1324.21,-364.84 -1675.23,909.25 -69.45,252.07 36.19,440 125.75,683.42 335.95,912.8 716.3,1673.19 1199.59,2397.64 796.91,1194.6 1948.45,2316.25 3175.08,3076.82 144.72,89.72 436.14,283.33 601.78,336.02l-69.85 -274.34z"/>
  <polygon class="fil2 str1" points="14812.12,18082.21 16330.78,17158.85 16892.72,19582.77 15106.37,21315.14 13303.84,21289.19 "/>
  <polygon class="fil2 str1" points="9407.57,17890.37 7803.49,17146.17 7189.8,19606.28 8953.89,21280.96 10824.94,21319.66 "/>
  <polygon class="fil2 str1" points="9601.49,10787.55 10232.98,12173.77 13931.61,12131.5 14550.94,10956.47 17932.92,10161.1 18126.01,13918.45 16540.18,14565.07 17893.91,16247.61 14856.74,18097.14 13064.76,21905.66 11051.64,21913.37 9403.22,17881.8 6195.04,16393.24 7768.27,14585.24 5932.68,13868.03 6255.1,10016.8 "/>
  <polygon class="fil3" points="11051.99,18610.23 11135.03,16543.87 10054.48,16033.25 9436.92,15403.99 9543.85,16615.21 "/>
  <polygon class="fil3" points="15775.88,14042.44 14605.28,12800.37 15011.36,11797.07 16946.3,11247.6 17113.59,13469.23 "/>
  <polygon class="fil3" points="12915.04,18699.61 12831.99,16633.25 13912.56,16122.63 14530.1,15493.37 14423.17,16704.59 "/>
  <polygon class="fil3" points="8549.78,14102.06 9720.36,12859.99 9314.29,11856.69 7379.34,11307.22 7212.05,13528.85 "/>
  <polygon class="fil3" points="14008.66,12091.61 14094.37,12485.96 13735.92,12605.49 12636.82,14063.05 11991.67,17264.99 11489.8,14110.81 10487.4,12722.36 10109.82,12612.76 10282.3,12186.53 "/>
  <polygon class="fil4" points="12600.66,21553.66 11597.97,21557.87 12072.71,19374.57 "/>
  <polygon class="fil2 str2" points="13681.06,17321.69 12996.91,16871.58 12996.91,18203.97 "/>
  <polygon class="fil2 str2" points="10264.93,17289.82 10949.06,16839.71 10949.06,18172.1 "/>
  <polygon class="fil3" points="8255.23,21286.73 7417.6,20517.02 7100.66,21150.88 "/>
  <polygon class="fil3" points="15813.23,21328.57 16650.87,20558.86 16967.81,21192.72 "/>
  <path class="fil0" d="M22117.4 7480.04l-2667.97 2663.53c-4.81,66.79 55.38,269.88 108.59,298.28 45.38,24.23 237.72,96.22 298.7,109.71 76.64,-56.11 1252.21,-1241.98 1337.45,-1329.36 108.52,-111.23 1277.4,-1261.94 1328.6,-1336.06 130.98,9.16 287.42,101.14 547.61,1.53 526.55,-201.61 634.68,-856.07 263.82,-1221.66 -463.88,-457.25 -1260.29,-143.2 -1262.5,524.76 -0.42,126.01 35.15,185.39 45.7,289.27zm635.38 -567.09c-372.35,84.98 -245.27,637.4 119.22,558.84 369.47,-79.64 250.49,-643.21 -119.22,-558.84z"/>
  <path class="fil0" d="M20173.43 7199.67l-870.01 879.66c-5.86,261.01 308.03,246.45 325.07,494.46 97.37,-45.55 830.17,-856.49 961.68,-952.6 210.03,38.94 321.51,88.46 542.29,0.21 155.48,-62.15 280.02,-169.21 355.52,-286.15 294.78,-456.65 11.62,-1061.18 -504.25,-1139.21 -474.86,-71.82 -996.57,306.62 -810.3,1003.63zm621.64 -592.28c-374.86,94.07 -244.99,630.15 120.16,558.79 131.42,-25.68 258.88,-170.17 219.31,-346.09 -29.86,-132.89 -175.78,-253.78 -339.47,-212.7z"/>
  <path class="fil1" d="M1453.23 8362.58l2734.65 2595.02c66.9,3.02 268.29,-62.64 295.25,-116.6 22.99,-46.03 89.75,-240.23 101.59,-301.57 -58.16,-75.08 -1275.36,-1218.18 -1365,-1301.03 -114.13,-105.47 -1296,-1242.83 -1371.48,-1292.02 5.62,-131.18 93.33,-290.04 -13.27,-547.45 -215.76,-520.91 -872.9,-611.32 -1228.35,-230.7 -444.53,476.05 -109.08,1263.69 558.7,1247.85 125.97,-2.98 184.36,-40.14 287.91,-53.5zm-631.98 -605.68c95,369.92 643.8,227.95 555.41,-134.28 -89.58,-367.19 -649.75,-233.02 -555.41,134.28z"/>
  <path class="fil1" d="M4717.94 9170.78c31.76,-190.18 43.74,-404.78 50.15,-603.65 6.23,-193.55 -18.22,-153.71 -263.18,-388.67 -229.77,-220.44 -455.44,-427.16 -684.26,-648.81 -102.11,-98.9 -92.27,-40.29 -59.85,-196.37 58.78,-282.8 -59.25,-552.76 -260.06,-725.29 -266.57,-229.06 -730.43,-202.44 -974.5,34.34 -485.15,470.69 -163.18,1325.22 559.95,1282.94 316.99,-18.52 139.82,-154.56 432.21,119.38 167.1,156.55 1129.1,1092.02 1199.54,1126.13zm-1984.23 -1927.34c127.75,365.74 668.18,160.31 534.38,-195.75 -126.69,-337.09 -661.64,-168.59 -534.38,195.75z"/>
  <path class="fil1" d="M2519.17 11589.98l571.17 536.32c261.07,-1.2 495.5,-61.14 742.96,-84.86 -48.18,-96.13 -804.39,-750.58 -904.03,-879.44 33.26,-211 79.75,-323.79 -14.43,-542.09 -66.33,-153.74 -176.71,-275.36 -295.65,-347.67 -464.46,-282.32 -1061.11,17.06 -1125.17,534.86 -58.96,476.63 333.43,987.91 1025.15,782.88zm-567.2 -617.83c104.17,372.19 636.54,227.87 555.34,-135.22 -29.22,-130.68 -177.1,-254.18 -351.9,-209.89 -132.03,33.46 -248.93,182.59 -203.44,345.11z"/>
  <path class="fil5" d="M11794.95 27434.91l-44.22 -2421.8c26.35,-26.61 387.89,-271.58 428.1,-250.52 12.04,60.15 33.39,1377.68 33.59,1456.11 0.28,99.84 28.22,1153.39 16.92,1210.47 75.98,54.41 209.48,82.03 298.27,244.41 179.66,328.6 -106.82,678.65 -501.11,681.15 -493.14,3.13 -760.08,-498.09 -408.95,-806.95 66.23,-58.26 116.87,-69.72 177.4,-112.87zm15.65 552.99c-157.43,-242.57 202.98,-475.59 359.53,-240.66 158.68,238.14 -203.22,481.5 -359.53,240.66z"/>
  <path class="fil1" d="M13078.73 25026.78c122.27,79.78 248,183.11 362.08,281.49 111.04,95.74 76.31,88.95 81.69,345.88 5.03,241.04 4.55,472.75 10.77,713.88 2.78,107.59 -24.85,72.06 78.74,134 187.71,112.22 277.64,316.37 270.85,516.71 -9.01,265.95 -261.62,510.78 -518.68,525.4 -510.97,29.07 -822.1,-588.38 -427.86,-969.65 172.82,-167.14 157.81,1.31 155.04,-302.04 -1.58,-173.36 -29.73,-1188.93 -12.63,-1245.67zm58.9 2013.64c-138.31,-258.67 253.2,-454.51 383.01,-197.43 122.89,243.39 -245.22,455.09 -383.01,197.43z"/>
  <path class="fil0" d="M10672.58 25768.07l-6.07 -593.19c134.5,-144.85 288.07,-244.76 428.13,-370.49 28.89,76.11 5.91,832.98 26.65,954.54 134.62,89.64 221.3,121.55 294.66,285.93 51.68,115.77 62.87,239.62 42.19,342.96 -80.77,403.52 -553.45,582.53 -874.82,352.8 -295.81,-211.46 -379.56,-692.2 89.26,-972.55zm53.52 632.76c-153.99,-248.82 199.32,-471.5 360.02,-240.13 57.85,83.27 50.85,228.98 -63.42,303.67 -86.33,56.42 -229.36,45.12 -296.6,-63.54z"/>
  <path class="fil0" d="M21835.54 11471.33l-571.17 536.32c-261.07,-1.2 -535.67,38.03 -783.12,14.33 48.15,-96.14 844.55,-849.77 944.17,-978.63 -33.25,-211 -79.73,-323.79 14.45,-542.09 66.34,-153.74 176.71,-275.36 295.65,-347.66 464.45,-282.33 1061.11,17.05 1125.17,534.85 58.96,476.63 -333.43,987.91 -1025.15,782.88zm567.2 -617.82c-104.17,372.18 -636.55,227.87 -555.34,-135.23 29.22,-130.68 177.1,-254.18 351.9,-209.88 132.02,33.45 248.93,182.58 203.44,345.11z"/>
 </g>
</svg>
